<?xml version="1.0" encoding="UTF-8" standalone="no"?>
<!-- Created with Inkscape (http://www.inkscape.org/) -->

<svg
   xmlns:dc="http://purl.org/dc/elements/1.1/"
   xmlns:cc="http://creativecommons.org/ns#"
   xmlns:rdf="http://www.w3.org/1999/02/22-rdf-syntax-ns#"
   xmlns:svg="http://www.w3.org/2000/svg"
   xmlns="http://www.w3.org/2000/svg"
   xmlns:sodipodi="http://sodipodi.sourceforge.net/DTD/sodipodi-0.dtd"
   xmlns:inkscape="http://www.inkscape.org/namespaces/inkscape"
   width="212.59842"
   height="88.58268"
   viewBox="0 0 212.59843 88.582676"
   id="svg2"
   version="1.1"
   inkscape:version="0.48.4 r9939"
   sodipodi:docname="servo_mount _back.svg">
  <defs
     id="defs4" />
  <sodipodi:namedview
     id="base"
     pagecolor="#ffffff"
     bordercolor="#666666"
     borderopacity="1.0"
     inkscape:pageopacity="0.0"
     inkscape:pageshadow="2"
     inkscape:zoom="8.2785188"
     inkscape:cx="91.86426"
     inkscape:cy="44.29134"
     inkscape:document-units="mm"
     inkscape:current-layer="layer1"
     showgrid="false"
     inkscape:window-width="1920"
     inkscape:window-height="1017"
     inkscape:window-x="-8"
     inkscape:window-y="-8"
     inkscape:window-maximized="1"
     units="in" />
  <metadata
     id="metadata7">
    <rdf:RDF>
      <cc:Work
         rdf:about="">
        <dc:format>image/svg+xml</dc:format>
        <dc:type
           rdf:resource="http://purl.org/dc/dcmitype/StillImage" />
        <dc:title></dc:title>
      </cc:Work>
    </rdf:RDF>
  </metadata>
  <g
     inkscape:label="Layer 1"
     inkscape:groupmode="layer"
     id="layer1"
     transform="translate(0,-963.77943)">
    <rect
       style="fill:none;stroke:#0000ff;stroke-width:0.03538626;stroke-miterlimit:4;stroke-opacity:1;stroke-dasharray:none"
       id="rect4164"
       width="141.60742"
       height="70.741333"
       x="35.495571"
       y="972.70001" />
    <path
       style="fill:none;stroke:#ff0000;stroke-width:0.0355497;stroke-linecap:butt;stroke-linejoin:miter;stroke-miterlimit:4;stroke-opacity:1;stroke-dasharray:none"
       d="m 205.44932,972.70022 0,70.74098 -198.3002074,0 0,-70.74098 z"
       id="path4147"
       inkscape:connector-curvature="0"
       sodipodi:nodetypes="ccccc" />
    <path
       inkscape:connector-curvature="0"
       style="fill:none;stroke:#ff0000;stroke-width:0.09584435;stroke-miterlimit:4;stroke-opacity:1;stroke-dasharray:none"
       d="m 26.512596,989.4684 a 6.1384324,6.138391 0 0 1 -6.138433,6.13829 6.1384324,6.138391 0 0 1 -6.138434,-6.13829 6.1384324,6.138391 0 0 1 6.138434,-6.13847 6.1384324,6.138391 0 0 1 6.138433,6.13847 z"
       id="path4185" />
    <path
       id="path4187"
       d="m 26.51245,1027.0277 a 6.1384325,6.1383514 0 0 1 -6.138433,6.1383 6.1384325,6.1383514 0 0 1 -6.138434,-6.1383 6.1384325,6.1383514 0 0 1 6.138434,-6.1385 6.1384325,6.1383514 0 0 1 6.138433,6.1385 z"
       style="fill:none;stroke:#ff0000;stroke-width:0.09584405;stroke-miterlimit:4;stroke-opacity:1;stroke-dasharray:none"
       inkscape:connector-curvature="0" />
    <path
       id="path4201"
       d="m 198.36271,989.4684 a 6.1382846,6.1383916 0 0 1 -6.13829,6.13829 6.1382846,6.1383916 0 0 1 -6.13829,-6.13829 6.1382846,6.1383916 0 0 1 6.13829,-6.13847 6.1382846,6.1383916 0 0 1 6.13829,6.13847 z"
       style="fill:none;stroke:#ff0000;stroke-width:0.0958432;stroke-miterlimit:4;stroke-opacity:1;stroke-dasharray:none"
       inkscape:connector-curvature="0" />
    <path
       inkscape:connector-curvature="0"
       style="fill:none;stroke:#ff0000;stroke-width:0.09606838;stroke-miterlimit:4;stroke-opacity:1;stroke-dasharray:none"
       id="path17"
       d="" />
    <circle
       style="fill:none;stroke:#ff0000;stroke-width:0.03551145;stroke-miterlimit:4;stroke-opacity:1;stroke-dasharray:none"
       id="path2994"
       cx="70.86615"
       cy="1008.0709"
       r="23.013742"
       d="m 93.879892,1008.0709 c 0,12.7102 -10.303603,23.0138 -23.013742,23.0138 -12.710139,0 -23.013743,-10.3036 -23.013743,-23.0138 0,-12.71012 10.303604,-23.01372 23.013743,-23.01372 12.710139,0 23.013742,10.3036 23.013742,23.01372 z"
       sodipodi:cx="70.86615"
       sodipodi:cy="1008.0709"
       sodipodi:rx="23.013742"
       sodipodi:ry="23.013742"
       transform="matrix(0.99806024,0,0,0.99806099,0.13756284,1.9543847)" />
    <path
       id="path4187-7"
       d="m 198.36301,1026.6731 a 6.1384314,6.1383517 0 0 1 -6.13844,6.1383 6.1384314,6.1383517 0 0 1 -6.13844,-6.1383 6.1384314,6.1383517 0 0 1 6.13844,-6.1385 6.1384314,6.1383517 0 0 1 6.13844,6.1385 z"
       style="fill:none;stroke:#ff0000;stroke-width:0.09584404;stroke-miterlimit:4;stroke-opacity:1;stroke-dasharray:none"
       inkscape:connector-curvature="0" />
    <path
       id="path4142"
       d="m 118.63951,1034.6455 a 3.4814192,3.4813307 0 0 1 -3.48141,3.4813 3.4814192,3.4813307 0 0 1 -3.48142,-3.4813 3.4814192,3.4813307 0 0 1 3.48142,-3.4813 3.4814192,3.4813307 0 0 1 3.48141,3.4813 z"
       style="fill:none;stroke:#ff0000;stroke-width:0.05435773;stroke-miterlimit:4;stroke-opacity:1;stroke-dasharray:none"
       inkscape:connector-curvature="0" />
    <path
       inkscape:connector-curvature="0"
       style="fill:none;stroke:#ff0000;stroke-width:0.0543575;stroke-miterlimit:4;stroke-opacity:1;stroke-dasharray:none"
       d="m 118.64012,981.49603 a 3.4814193,3.4813014 0 0 1 -3.48141,3.48124 3.4814193,3.4813014 0 0 1 -3.48142,-3.48124 3.4814193,3.4813014 0 0 1 3.48142,-3.48134 3.4814193,3.4813014 0 0 1 3.48141,3.48134 z"
       id="path3346" />
    <path
       inkscape:connector-curvature="0"
       style="fill:none;stroke:#ff0000;stroke-width:0.05435307;stroke-miterlimit:4;stroke-opacity:1;stroke-dasharray:none"
       d="m 171.78792,1034.6452 a 3.4808199,3.481333 0 0 1 -3.48081,3.4813 3.4808199,3.481333 0 0 1 -3.48082,-3.4813 3.4808199,3.481333 0 0 1 3.48082,-3.4813 3.4808199,3.481333 0 0 1 3.48081,3.4813 z"
       id="path3354" />
    <path
       id="path3356"
       d="m 171.78912,981.49634 a 3.4814193,3.4813014 0 0 1 -3.48141,3.48124 3.4814193,3.4813014 0 0 1 -3.48142,-3.48124 3.4814193,3.4813014 0 0 1 3.48142,-3.48134 3.4814193,3.4813014 0 0 1 3.48141,3.48134 z"
       style="fill:none;stroke:#ff0000;stroke-width:0.0543575;stroke-miterlimit:4;stroke-opacity:1;stroke-dasharray:none"
       inkscape:connector-curvature="0" />
    <path
       id="path3358"
       d="m 47.772767,1034.6455 a 3.4808097,3.4809665 0 0 1 -3.480811,3.481 3.4808097,3.4809665 0 0 1 -3.48081,-3.481 3.4808097,3.4809665 0 0 1 3.48081,-3.481 3.4808097,3.4809665 0 0 1 3.480811,3.481 z"
       style="fill:none;stroke:#ff0000;stroke-width:0.05435012;stroke-miterlimit:4;stroke-opacity:1;stroke-dasharray:none"
       inkscape:connector-curvature="0" />
    <path
       inkscape:connector-curvature="0"
       style="fill:none;stroke:#ff0000;stroke-width:0.0543575;stroke-miterlimit:4;stroke-opacity:1;stroke-dasharray:none"
       d="m 47.773373,981.49634 a 3.4814193,3.4813014 0 0 1 -3.48142,3.48124 3.4814193,3.4813014 0 0 1 -3.481419,-3.48124 3.4814193,3.4813014 0 0 1 3.481419,-3.48134 3.4814193,3.4813014 0 0 1 3.48142,3.48134 z"
       id="path3360" />
  </g>
</svg>
